<svg version="1.2" baseProfile="tiny-ps" xmlns="http://www.w3.org/2000/svg" viewBox="0 0 202 53" width="202" height="53">
	<title>meeo_logo-svg</title>
	<style>
		tspan { white-space:pre }
		.shp0 { fill: #e41157 } 
		.shp1 { fill: none;stroke: #212121;stroke-width: 0.5 } 
		.shp2 { fill: #eaebef } 
	</style>
	<g id="Group_46">
		<path id="Path_52" fill-rule="evenodd" class="shp0" d="M175.36 27.15C171.06 25.55 168.96 20.75 170.56 16.45C171.36 14.45 172.86 12.85 174.76 11.95C173.16 9.95 172.76 7.35 173.66 4.95C175.06 1.25 179.16 -0.55 182.86 0.85C185.06 1.65 186.76 3.55 187.26 5.95C189.66 4.65 192.56 4.45 195.16 5.45C200.06 7.35 202.56 12.85 200.66 17.85C198.76 22.75 193.26 25.25 188.26 23.35C187.46 23.05 186.76 22.65 186.06 22.15L186.06 22.35C184.46 26.65 179.66 28.75 175.36 27.15ZM183.16 18.45C182.86 17.95 182.66 17.35 182.56 16.85C181.96 15.85 181.16 15.15 180.06 14.75C177.56 13.75 174.66 15.05 173.66 17.55C172.66 20.05 173.96 22.95 176.46 23.95C179.06 24.95 181.96 23.65 182.96 21.15C183.26 20.35 183.36 19.35 183.16 18.45ZM186.36 17.05C187.06 18.45 188.26 19.45 189.66 20.05C192.86 21.25 196.36 19.65 197.66 16.55C198.86 13.35 197.26 9.85 194.16 8.55C190.96 7.35 187.46 8.95 186.16 12.05C185.56 13.25 185.46 14.55 185.86 15.75C186.06 16.15 186.26 16.55 186.36 17.05ZM183.86 8.75C184.56 6.85 183.66 4.75 181.76 3.95C179.86 3.25 177.76 4.15 176.96 6.05C176.26 7.95 177.16 10.05 179.06 10.85C180.96 11.55 183.06 10.65 183.86 8.75Z" />
		<path id="Path_53" class="shp1" d="M186.06 22.35C184.46 26.65 179.66 28.75 175.36 27.15L175.36 27.15C171.06 25.55 168.96 20.75 170.56 16.45L170.56 16.45C171.36 14.45 172.86 12.85 174.76 11.95C173.16 9.95 172.76 7.35 173.66 4.95C175.06 1.25 179.16 -0.55 182.86 0.85C185.06 1.65 186.76 3.55 187.26 5.95C189.66 4.65 192.56 4.45 195.16 5.45C200.06 7.35 202.56 12.85 200.66 17.85C198.76 22.75 193.26 25.25 188.26 23.35C187.46 23.05 186.76 22.65 186.06 22.15L186.06 22.35L186.06 22.35ZM182.96 21.15C181.96 23.65 179.06 24.95 176.46 23.95C173.96 22.95 172.66 20.05 173.66 17.55C174.66 15.05 177.56 13.75 180.06 14.75C181.16 15.15 181.96 15.85 182.56 16.85C182.66 17.35 182.86 17.95 183.16 18.45C183.36 19.35 183.26 20.35 182.96 21.15L182.96 21.15ZM185.86 15.75C185.46 14.55 185.56 13.25 186.16 12.05L186.16 12.05C187.46 8.95 190.96 7.35 194.16 8.55L194.16 8.55C197.26 9.85 198.86 13.35 197.66 16.55L197.66 16.55C196.36 19.65 192.86 21.25 189.66 20.05C188.26 19.45 187.06 18.45 186.36 17.05C186.26 16.55 186.06 16.15 185.86 15.75L185.86 15.75ZM179.06 10.85C177.16 10.05 176.26 7.95 176.96 6.05C177.76 4.15 179.86 3.25 181.76 3.95C183.66 4.75 184.56 6.85 183.86 8.75C183.06 10.65 180.96 11.55 179.06 10.85Z" />
		<path id="Path_54" class="shp2" d="M54.16 49.85L45.96 49.85L45.96 32.15C45.96 31.85 45.86 31.55 45.56 31.35C45.36 31.15 45.16 31.05 44.86 31.05C44.36 31.05 43.86 31.35 43.66 31.85L33.76 49.85L25.96 49.85L15.76 31.75C15.66 31.55 15.56 31.35 15.46 31.15C15.26 30.95 15.16 30.85 14.96 30.75C14.86 30.65 14.66 30.65 14.56 30.65C14.26 30.65 14.06 30.85 13.86 31.05C13.66 31.25 13.56 31.55 13.56 31.85L13.56 49.85L5.46 49.85L5.46 27.85C5.46 26.85 5.76 25.85 6.26 24.95C6.76 24.05 7.46 23.35 8.26 22.65C9.06 22.05 9.86 21.55 10.76 21.25C11.46 20.95 12.26 20.75 13.06 20.75C14.76 20.65 16.36 21.15 17.76 22.15C19.36 23.55 20.66 25.15 21.66 27.05L29.86 41.75L38.26 26.95C39.16 25.15 40.36 23.55 41.86 22.25C43.26 21.15 44.86 20.55 46.66 20.65C47.76 20.65 48.86 20.85 49.76 21.35C50.66 21.75 51.56 22.35 52.26 23.15C52.96 23.85 53.46 24.65 53.86 25.65C54.26 26.45 54.36 27.35 54.36 28.25L54.16 49.85L54.16 49.85Z" />
		<path id="Path_55" class="shp2" d="M90.76 49.85L67.26 49.85C65.66 49.85 64.06 49.35 62.76 48.45C61.46 47.55 60.36 46.35 59.56 45.05C58.86 43.85 58.46 42.55 58.36 41.15L58.36 29.15C58.36 27.75 58.96 26.45 59.86 25.45C60.86 24.25 61.96 23.15 63.36 22.45C64.36 21.75 65.56 21.35 66.86 21.25L90.16 21.25L90.16 27.75L69.36 27.75C68.86 27.75 68.36 27.85 67.86 28.15C67.36 28.45 67.06 28.75 66.76 29.15C66.46 29.55 66.36 30.05 66.36 30.55L66.36 32.25L90.06 32.25L90.06 38.65L66.56 38.65L66.56 40.95C66.56 41.55 66.96 42.15 67.56 42.45C68.16 42.85 68.76 43.05 69.46 43.05L90.76 43.05L90.76 49.85L90.76 49.85Z" />
		<path id="Path_56" class="shp2" d="M127.16 49.85L103.66 49.85C102.06 49.85 100.46 49.35 99.16 48.45C97.86 47.55 96.76 46.35 95.96 45.05C95.26 43.85 94.86 42.55 94.76 41.15L94.76 29.15C94.76 27.75 95.36 26.45 96.26 25.45C97.26 24.25 98.36 23.15 99.76 22.45C100.76 21.75 101.96 21.35 103.26 21.25L126.56 21.25L126.56 27.75L105.76 27.75C105.26 27.75 104.76 27.85 104.26 28.15C103.76 28.45 103.46 28.75 103.16 29.15C102.86 29.55 102.76 30.05 102.76 30.55L102.76 32.25L126.46 32.25L126.46 38.65L102.96 38.65L102.96 40.95C102.96 41.55 103.36 42.15 103.96 42.45C104.56 42.85 105.16 43.05 105.86 43.05L127.26 43.05L127.16 49.85L127.16 49.85Z" />
		<path id="Path_57" fill-rule="evenodd" class="shp2" d="M168.56 45.55C167.76 46.85 166.66 47.95 165.36 48.75C164.36 49.45 163.16 49.85 161.96 49.95L139.96 49.95C138.26 49.95 136.56 49.45 135.16 48.55C133.86 47.65 132.66 46.45 131.96 45.05C131.26 43.85 130.86 42.45 130.86 41.05L130.86 30.35C130.86 29.15 131.16 28.05 131.66 26.95C132.16 25.85 132.86 24.95 133.66 24.15C134.46 23.35 135.36 22.65 136.36 22.15C137.26 21.65 138.26 21.45 139.16 21.45L160.76 21.45C161.96 21.55 163.26 21.85 164.36 22.45C165.86 23.15 167.16 24.25 168.16 25.55C169.36 27.15 169.86 29.15 169.86 31.05L169.86 41.15C169.86 42.75 169.36 44.25 168.56 45.55ZM161.66 32.65C161.66 31.45 161.26 30.35 160.36 29.55C159.26 28.55 157.86 28.15 156.36 28.25L143.76 28.25C143.16 28.25 142.46 28.45 141.96 28.85C141.26 29.25 140.56 29.75 140.06 30.35C139.56 30.85 139.26 31.55 139.26 32.25L139.26 37.85C139.26 39.05 139.66 40.25 140.36 41.25C141.16 42.15 142.26 42.75 143.46 42.65L157.56 42.65C158.56 42.65 159.66 42.35 160.46 41.75C161.36 40.85 161.86 39.65 161.66 38.55L161.66 32.65Z" />
	</g>
</svg>