<?xml version="1.0" encoding="utf-8"?>
<!-- Generator: Adobe Illustrator 22.1.0, SVG Export Plug-In . SVG Version: 6.00 Build 0)  -->
<svg version="1.1" id="Livello_1" xmlns="http://www.w3.org/2000/svg" xmlns:xlink="http://www.w3.org/1999/xlink" x="0px" y="0px"
	 viewBox="0 0 201.6 52.8" style="enable-background:new 0 0 201.6 52.8;" xml:space="preserve">
<style type="text/css">
	.st0{fill:#E41157;}
	.st1{fill:none;stroke:#CCCDCF;stroke-width:0.5;stroke-miterlimit:57;}
	.st2{fill:#212223;}
</style>
<g id="Group_46" transform="translate(-579.242 265.252)">
	<path id="Path_52" class="st0" d="M763.1-256.5c0.7-1.9-0.2-4-2.1-4.8c-1.9-0.7-4,0.2-4.8,2.1c-0.7,1.9,0.2,4,2.1,4.8
		C760.2-253.7,762.3-254.6,763.1-256.5z M762.2-244.1c0.3-0.8,0.4-1.8,0.2-2.7c-0.3-0.5-0.5-1.1-0.6-1.6c-0.6-1-1.4-1.7-2.5-2.1
		c-2.5-1-5.4,0.3-6.4,2.8c-1,2.5,0.3,5.4,2.8,6.4C758.3-240.3,761.2-241.6,762.2-244.1L762.2-244.1z M765.1-249.5
		c0.2,0.4,0.4,0.8,0.5,1.3c0.7,1.4,1.9,2.4,3.3,3c3.2,1.2,6.7-0.4,8-3.5c0,0,0,0,0,0c1.2-3.2-0.4-6.7-3.5-8c0,0,0,0,0,0
		c-3.2-1.2-6.7,0.4-8,3.5c0,0,0,0,0,0C764.8-252,764.7-250.7,765.1-249.5L765.1-249.5z M765.3-242.9c-1.6,4.3-6.4,6.4-10.7,4.8
		c0,0,0,0,0,0c-4.3-1.6-6.4-6.4-4.8-10.7c0,0,0,0,0,0c0.8-2,2.3-3.6,4.2-4.5c-1.6-2-2-4.6-1.1-7c1.4-3.7,5.5-5.5,9.2-4.1
		c2.2,0.8,3.9,2.7,4.4,5.1c2.4-1.3,5.3-1.5,7.9-0.5c4.9,1.9,7.4,7.4,5.5,12.4c-1.9,4.9-7.4,7.4-12.4,5.5c-0.8-0.3-1.5-0.7-2.2-1.2
		L765.3-242.9L765.3-242.9z"/>
	<path id="Path_53" class="st1" d="M763.1-256.5c0.7-1.9-0.2-4-2.1-4.8c-1.9-0.7-4,0.2-4.8,2.1c-0.7,1.9,0.2,4,2.1,4.8
		C760.2-253.7,762.3-254.6,763.1-256.5z M762.2-244.1c0.3-0.8,0.4-1.8,0.2-2.7c-0.3-0.5-0.5-1.1-0.6-1.6c-0.6-1-1.4-1.7-2.5-2.1
		c-2.5-1-5.4,0.3-6.4,2.8c-1,2.5,0.3,5.4,2.8,6.4C758.3-240.3,761.2-241.6,762.2-244.1L762.2-244.1z M765.1-249.5
		c0.2,0.4,0.4,0.8,0.5,1.3c0.7,1.4,1.9,2.4,3.3,3c3.2,1.2,6.7-0.4,8-3.5c0,0,0,0,0,0c1.2-3.2-0.4-6.7-3.5-8c0,0,0,0,0,0
		c-3.2-1.2-6.7,0.4-8,3.5c0,0,0,0,0,0C764.8-252,764.7-250.7,765.1-249.5L765.1-249.5z M765.3-242.9c-1.6,4.3-6.4,6.4-10.7,4.8
		c0,0,0,0,0,0c-4.3-1.6-6.4-6.4-4.8-10.7c0,0,0,0,0,0c0.8-2,2.3-3.6,4.2-4.5c-1.6-2-2-4.6-1.1-7c1.4-3.7,5.5-5.5,9.2-4.1
		c2.2,0.8,3.9,2.7,4.4,5.1c2.4-1.3,5.3-1.5,7.9-0.5c4.9,1.9,7.4,7.4,5.5,12.4c-1.9,4.9-7.4,7.4-12.4,5.5c-0.8-0.3-1.5-0.7-2.2-1.2
		L765.3-242.9L765.3-242.9z"/>
	<path id="Path_54" class="st2" d="M633.4-215.4h-8.2v-17.7c0-0.3-0.1-0.6-0.4-0.8c-0.2-0.2-0.4-0.3-0.7-0.3c-0.5,0-1,0.3-1.2,0.8
		l-9.9,18h-7.8L595-233.5c-0.1-0.2-0.2-0.4-0.3-0.6c-0.2-0.2-0.3-0.3-0.5-0.4c-0.1-0.1-0.3-0.1-0.4-0.1c-0.3,0-0.5,0.2-0.7,0.4
		c-0.2,0.2-0.3,0.5-0.3,0.8v18h-8.1v-22c0-1,0.3-2,0.8-2.9c0.5-0.9,1.2-1.6,2-2.3c0.8-0.6,1.6-1.1,2.5-1.4c0.7-0.3,1.5-0.5,2.3-0.5
		c1.7-0.1,3.3,0.4,4.7,1.4c1.6,1.4,2.9,3,3.9,4.9l8.2,14.7l8.4-14.8c0.9-1.8,2.1-3.4,3.6-4.7c1.4-1.1,3-1.7,4.8-1.6
		c1.1,0,2.2,0.2,3.1,0.7c0.9,0.4,1.8,1,2.5,1.8c0.7,0.7,1.2,1.5,1.6,2.5c0.4,0.8,0.5,1.7,0.5,2.6L633.4-215.4L633.4-215.4z"/>
	<path id="Path_55" class="st2" d="M670-215.4h-23.5c-1.6,0-3.2-0.5-4.5-1.4c-1.3-0.9-2.4-2.1-3.2-3.4c-0.7-1.2-1.1-2.5-1.2-3.9v-12
		c0-1.4,0.6-2.7,1.5-3.7c1-1.2,2.1-2.3,3.5-3c1-0.7,2.2-1.1,3.5-1.2h23.3v6.5h-20.8c-0.5,0-1,0.1-1.5,0.4c-0.5,0.3-0.8,0.6-1.1,1
		c-0.3,0.4-0.4,0.9-0.4,1.4v1.7h23.7v6.4h-23.5v2.3c0,0.6,0.4,1.2,1,1.5c0.6,0.4,1.2,0.6,1.9,0.6H670L670-215.4L670-215.4z"/>
	<path id="Path_56" class="st2" d="M706.4-215.4h-23.5c-1.6,0-3.2-0.5-4.5-1.4c-1.3-0.9-2.4-2.1-3.2-3.4c-0.7-1.2-1.1-2.5-1.2-3.9
		v-12c0-1.4,0.6-2.7,1.5-3.7c1-1.2,2.1-2.3,3.5-3c1-0.7,2.2-1.1,3.5-1.2h23.3v6.5H685c-0.5,0-1,0.1-1.5,0.4c-0.5,0.3-0.8,0.6-1.1,1
		c-0.3,0.4-0.4,0.9-0.4,1.4v1.7h23.7v6.4h-23.5v2.3c0,0.6,0.4,1.2,1,1.5c0.6,0.4,1.2,0.6,1.9,0.6h21.4L706.4-215.4L706.4-215.4z"/>
	<path id="Path_57" class="st2" d="M749.1-224.1c0,1.6-0.5,3.1-1.3,4.4c-0.8,1.3-1.9,2.4-3.2,3.2c-1,0.7-2.2,1.1-3.4,1.2h-22
		c-1.7,0-3.4-0.5-4.8-1.4c-1.3-0.9-2.5-2.1-3.2-3.5c-0.7-1.2-1.1-2.6-1.1-4v-10.7c0-1.2,0.3-2.3,0.8-3.4c0.5-1.1,1.2-2,2-2.8
		c0.8-0.8,1.7-1.5,2.7-2c0.9-0.5,1.9-0.7,2.8-0.7h21.6c1.2,0.1,2.5,0.4,3.6,1c1.5,0.7,2.8,1.8,3.8,3.1c1.2,1.6,1.7,3.6,1.7,5.5
		L749.1-224.1L749.1-224.1z M740.9-226.7v-5.9c0-1.2-0.4-2.3-1.3-3.1c-1.1-1-2.5-1.4-4-1.3H723c-0.6,0-1.3,0.2-1.8,0.6
		c-0.7,0.4-1.4,0.9-1.9,1.5c-0.5,0.5-0.8,1.2-0.8,1.9v5.6c0,1.2,0.4,2.4,1.1,3.4c0.8,0.9,1.9,1.5,3.1,1.4h14.1c1,0,2.1-0.3,2.9-0.9
		C740.6-224.4,741.1-225.6,740.9-226.7L740.9-226.7z"/>
</g>
</svg>
